<svg width="896" height="264" viewBox="0 0 896 264" fill="none" xmlns="http://www.w3.org/2000/svg">
<path d="M320.845 208.098C322.274 210.193 322.988 212.242 322.988 214.242C322.988 216.91 321.893 219.101 319.701 220.816C317.606 222.531 315.129 223.388 312.271 223.388C310.46 223.388 308.698 222.959 306.983 222.102C305.268 221.244 303.839 219.911 302.696 218.101L283.833 190.092C282.214 187.615 280.499 185.853 278.689 184.805C276.879 183.661 274.592 183.09 271.83 183.09H260.255V211.956C260.255 215.385 259.254 218.101 257.254 220.101C255.348 222.102 252.728 223.102 249.394 223.102C245.964 223.102 243.249 222.102 241.249 220.101C239.248 218.101 238.248 215.385 238.248 211.956V131.931C238.248 128.597 239.153 126.025 240.963 124.215C242.773 122.405 245.345 121.499 248.68 121.499H284.548C296.361 121.499 305.268 124.119 311.27 129.359C317.367 134.503 320.416 141.982 320.416 151.794C320.416 159.511 318.272 165.942 313.985 171.086C309.698 176.231 303.649 179.613 295.837 181.232C298.695 181.804 301.22 182.947 303.411 184.662C305.697 186.281 307.888 188.663 309.984 191.807L320.845 208.098ZM281.261 166.227C287.644 166.227 292.264 165.132 295.122 162.941C297.98 160.654 299.409 157.129 299.409 152.366C299.409 147.507 297.98 143.983 295.122 141.791C292.264 139.6 287.644 138.505 281.261 138.505H259.969V166.227H281.261Z" fill="url(#paint0_linear)"/>
<path d="M367.615 150.365C377.903 150.365 385.525 152.89 390.479 157.939C395.433 162.893 397.91 170.515 397.91 180.803V213.099C397.91 216.243 397.005 218.72 395.194 220.53C393.384 222.245 390.86 223.102 387.621 223.102C384.572 223.102 382.095 222.197 380.19 220.387C378.38 218.482 377.475 216.052 377.475 213.099V212.099C376.046 215.624 373.664 218.386 370.33 220.387C366.995 222.388 363.089 223.388 358.612 223.388C353.848 223.388 349.514 222.435 345.608 220.53C341.797 218.625 338.749 215.957 336.462 212.527C334.271 209.098 333.175 205.287 333.175 201.095C333.175 195.951 334.461 191.902 337.034 188.949C339.701 185.995 343.941 183.852 349.752 182.518C355.563 181.184 363.518 180.518 373.616 180.518H377.332V177.945C377.332 173.944 376.427 171.039 374.617 169.228C372.902 167.418 369.996 166.513 365.9 166.513C361.803 166.513 355.897 167.942 348.18 170.8C345.989 171.848 344.131 172.372 342.607 172.372C340.511 172.372 338.844 171.658 337.605 170.229C336.367 168.704 335.748 166.751 335.748 164.37C335.748 162.464 336.176 160.893 337.034 159.654C337.891 158.416 339.272 157.272 341.178 156.224C344.512 154.414 348.561 152.985 353.324 151.937C358.183 150.889 362.946 150.365 367.615 150.365ZM363.328 208.526C367.519 208.526 370.901 207.145 373.473 204.382C376.046 201.524 377.332 197.856 377.332 193.379V190.949H374.902C367.186 190.949 361.756 191.569 358.612 192.807C355.563 194.046 354.039 196.284 354.039 199.523C354.039 202.191 354.896 204.382 356.611 206.097C358.421 207.716 360.66 208.526 363.328 208.526Z" fill="url(#paint1_linear)"/>
<path d="M458.056 150.365C466.44 150.365 472.68 152.842 476.776 157.796C480.873 162.655 482.921 170.038 482.921 179.946V212.956C482.921 216.1 481.921 218.577 479.92 220.387C478.015 222.197 475.395 223.102 472.061 223.102C468.726 223.102 466.106 222.197 464.201 220.387C462.296 218.577 461.343 216.1 461.343 212.956V180.946C461.343 176.183 460.438 172.706 458.628 170.515C456.913 168.323 454.198 167.228 450.483 167.228C446.005 167.228 442.385 168.657 439.622 171.515C436.955 174.373 435.621 178.184 435.621 182.947V212.956C435.621 216.1 434.668 218.577 432.763 220.387C430.858 222.197 428.238 223.102 424.903 223.102C421.569 223.102 418.901 222.197 416.901 220.387C414.996 218.577 414.043 216.1 414.043 212.956V160.511C414.043 157.558 415.043 155.176 417.044 153.366C419.14 151.556 421.807 150.651 425.046 150.651C428 150.651 430.381 151.556 432.191 153.366C434.097 155.081 435.049 157.32 435.049 160.083V162.083C437.526 158.273 440.718 155.367 444.624 153.366C448.625 151.366 453.102 150.365 458.056 150.365Z" fill="url(#paint2_linear)"/>
<path d="M558.905 120.785C562.24 120.785 564.907 121.69 566.908 123.5C569.004 125.31 570.052 127.692 570.052 130.645V212.956C570.052 216.005 569.051 218.482 567.051 220.387C565.145 222.197 562.573 223.102 559.334 223.102C556.095 223.102 553.475 222.197 551.475 220.387C549.569 218.482 548.617 216.005 548.617 212.956V211.813C546.521 215.433 543.52 218.291 539.614 220.387C535.803 222.388 531.468 223.388 526.61 223.388C520.608 223.388 515.225 221.864 510.462 218.815C505.794 215.671 502.126 211.337 499.459 205.811C496.886 200.19 495.6 193.76 495.6 186.519C495.6 179.279 496.886 172.944 499.459 167.514C502.126 161.988 505.794 157.749 510.462 154.795C515.13 151.842 520.513 150.365 526.61 150.365C531.373 150.365 535.66 151.366 539.471 153.366C543.377 155.367 546.378 158.177 548.474 161.798V130.216C548.474 127.358 549.426 125.072 551.332 123.357C553.237 121.642 555.762 120.785 558.905 120.785ZM532.897 206.954C537.947 206.954 541.805 205.239 544.472 201.81C547.235 198.285 548.617 193.283 548.617 186.805C548.617 180.327 547.235 175.373 544.472 171.944C541.805 168.514 537.947 166.799 532.897 166.799C527.848 166.799 523.942 168.514 521.18 171.944C518.417 175.278 517.035 180.137 517.035 186.519C517.035 192.998 518.417 198.047 521.18 201.667C523.942 205.192 527.848 206.954 532.897 206.954Z" fill="url(#paint3_linear)"/>
<path d="M620.393 223.388C612.962 223.388 606.436 221.911 600.816 218.958C595.195 215.909 590.86 211.67 587.812 206.24C584.763 200.714 583.239 194.236 583.239 186.805C583.239 179.374 584.763 172.944 587.812 167.514C590.86 161.988 595.195 157.749 600.816 154.795C606.436 151.842 612.962 150.365 620.393 150.365C627.824 150.365 634.35 151.842 639.97 154.795C645.591 157.749 649.926 161.988 652.974 167.514C656.023 172.944 657.547 179.374 657.547 186.805C657.547 194.236 656.023 200.714 652.974 206.24C649.926 211.67 645.591 215.909 639.97 218.958C634.35 221.911 627.824 223.388 620.393 223.388ZM620.393 206.954C630.872 206.954 636.112 200.238 636.112 186.805C636.112 180.041 634.731 174.992 631.968 171.658C629.301 168.323 625.442 166.656 620.393 166.656C609.914 166.656 604.674 173.373 604.674 186.805C604.674 200.238 609.914 206.954 620.393 206.954Z" fill="url(#paint4_linear)"/>
<path d="M679.572 223.102C676.047 223.102 673.141 221.959 670.855 219.672C668.569 217.291 667.425 214.338 667.425 210.813C667.425 207.288 668.569 204.382 670.855 202.096C673.141 199.714 676.047 198.523 679.572 198.523C683.097 198.523 686.003 199.714 688.289 202.096C690.575 204.382 691.719 207.288 691.719 210.813C691.719 214.338 690.575 217.291 688.289 219.672C686.003 221.959 683.097 223.102 679.572 223.102Z" fill="url(#paint5_linear)"/>
<path d="M792.859 150.365C800.48 150.365 806.339 152.7 810.436 157.368C814.532 161.94 816.581 169.467 816.581 179.946V212.956C816.581 216.29 815.58 218.815 813.58 220.53C811.579 222.245 809.007 223.102 805.863 223.102C802.814 223.102 800.242 222.245 798.146 220.53C796.05 218.815 795.003 216.29 795.003 212.956V179.66C795.003 175.087 794.193 171.896 792.573 170.086C791.049 168.18 788.667 167.228 785.428 167.228C781.427 167.228 778.235 168.609 775.854 171.372C773.472 174.135 772.281 177.993 772.281 182.947V212.956C772.281 216.29 771.281 218.815 769.28 220.53C767.28 222.245 764.707 223.102 761.564 223.102C758.515 223.102 755.943 222.245 753.847 220.53C751.751 218.815 750.703 216.29 750.703 212.956V179.66C750.703 175.087 749.893 171.896 748.274 170.086C746.75 168.18 744.368 167.228 741.129 167.228C737.128 167.228 733.936 168.609 731.554 171.372C729.173 174.135 727.982 177.993 727.982 182.947V212.956C727.982 216.29 726.934 218.815 724.838 220.53C722.837 222.245 720.313 223.102 717.264 223.102C714.216 223.102 711.644 222.245 709.548 220.53C707.452 218.815 706.404 216.29 706.404 212.956V160.511C706.404 157.368 707.452 154.938 709.548 153.224C711.739 151.509 714.359 150.651 717.407 150.651C720.265 150.651 722.647 151.509 724.552 153.224C726.458 154.843 727.41 157.129 727.41 160.083V161.512C729.697 157.892 732.65 155.129 736.27 153.224C739.986 151.318 744.177 150.365 748.845 150.365C753.895 150.365 758.134 151.413 761.564 153.509C765.089 155.51 767.804 158.797 769.709 163.369C771.9 159.368 774.996 156.224 778.998 153.938C783.094 151.556 787.714 150.365 792.859 150.365Z" fill="url(#paint6_linear)"/>
<path d="M889.141 201.381C891.046 201.381 892.57 202.143 893.714 203.668C894.952 205.192 895.571 207.145 895.571 209.527C895.571 211.146 895.095 212.67 894.142 214.099C893.19 215.433 891.856 216.576 890.141 217.529C886.902 219.244 883.139 220.673 878.852 221.816C874.565 222.864 870.611 223.388 866.991 223.388C859.37 223.388 852.701 221.911 846.985 218.958C841.364 216.005 837.03 211.813 833.981 206.383C830.932 200.857 829.408 194.379 829.408 186.948C829.408 179.803 830.885 173.468 833.838 167.942C836.791 162.417 840.888 158.13 846.128 155.081C851.367 151.937 857.321 150.365 863.99 150.365C870.373 150.365 875.946 151.795 880.71 154.653C885.568 157.415 889.331 161.416 891.999 166.656C894.666 171.801 896 177.85 896 184.805C896 186.901 895.476 188.52 894.428 189.663C893.475 190.711 892.094 191.235 890.284 191.235H850.272C850.939 196.856 852.653 200.952 855.416 203.525C858.179 206.002 862.132 207.24 867.277 207.24C870.04 207.24 872.517 206.907 874.708 206.24C876.899 205.573 879.328 204.668 881.996 203.525C883.329 202.953 884.616 202.477 885.854 202.096C887.092 201.619 888.188 201.381 889.141 201.381ZM864.562 165.227C860.465 165.227 857.179 166.561 854.702 169.228C852.225 171.801 850.748 175.564 850.272 180.518H877.852C877.566 175.468 876.28 171.658 873.993 169.086C871.802 166.513 868.658 165.227 864.562 165.227Z" fill="url(#paint7_linear)"/>
<path fill-rule="evenodd" clip-rule="evenodd" d="M197.32 32.1436L130.336 14.1956C112.879 9.51779 94.9343 19.878 90.2565 37.3357L72.3084 104.319C67.6307 121.777 77.9908 139.721 95.4486 144.399L162.432 162.347C179.889 167.025 197.834 156.664 202.512 139.207L220.46 72.2235C225.137 54.7658 214.777 36.8214 197.32 32.1436ZM131.546 9.67986C111.595 4.33382 91.0868 16.174 85.7408 36.1257L67.7927 103.109C62.4467 123.061 74.2869 143.568 94.2386 148.914L161.222 166.862C181.173 172.209 201.681 160.368 207.027 140.417L224.975 73.4335C230.321 53.4818 218.481 32.974 198.529 27.6279L131.546 9.67986Z" fill="url(#paint8_linear)"/>
<path d="M135.414 49.4355C133.409 56.9174 125.718 61.3574 118.236 59.3527C110.755 57.3479 106.315 49.6575 108.319 42.1756C110.324 34.6937 118.014 30.2536 125.496 32.2584C132.978 34.2632 137.418 41.9536 135.414 49.4355Z" fill="url(#paint9_linear)"/>
<path d="M184.449 134.367C182.444 141.849 174.754 146.289 167.272 144.284C159.79 142.279 155.35 134.589 157.354 127.107C159.359 119.625 167.05 115.185 174.532 117.19C182.013 119.194 186.453 126.885 184.449 134.367Z" fill="url(#paint10_linear)"/>
<path d="M160.408 91.6256C158.404 99.1075 150.713 103.548 143.231 101.543C135.749 99.538 131.309 91.8476 133.314 84.3657C135.319 76.8838 143.009 72.4438 150.491 74.4485C157.973 76.4533 162.413 84.1437 160.408 91.6256Z" fill="url(#paint11_linear)"/>
<path fill-rule="evenodd" clip-rule="evenodd" d="M36.1257 114.349C16.174 119.695 4.33382 140.203 9.67986 160.155L27.6279 227.138C32.974 247.089 53.4818 258.93 73.4335 253.584L140.417 235.635C160.368 230.289 172.209 209.782 166.862 189.83L148.914 122.847C143.568 102.895 123.061 91.0549 103.109 96.4009L36.1257 114.349ZM49.4362 164.022C56.9181 162.017 61.3582 154.327 59.3534 146.845C57.3486 139.363 49.6582 134.923 42.1763 136.928C34.6944 138.932 30.2543 146.623 32.2591 154.105C34.2639 161.587 41.9543 166.027 49.4362 164.022ZM77.3007 213.828C79.3054 221.31 74.8653 229 67.3835 231.005C59.9016 233.01 52.2111 228.57 50.2064 221.088C48.2016 213.606 52.6417 205.915 60.1236 203.911C67.6054 201.906 75.2959 206.346 77.3007 213.828ZM116.419 146.074C123.9 144.069 128.341 136.379 126.336 128.897C124.331 121.415 116.641 116.975 109.159 118.979C101.677 120.984 97.2368 128.675 99.2415 136.157C101.246 143.638 108.937 148.079 116.419 146.074ZM144.284 195.88C146.289 203.362 141.849 211.052 134.367 213.057C126.885 215.062 119.195 210.622 117.19 203.14C115.185 195.658 119.625 187.967 127.107 185.963C134.589 183.958 142.28 188.398 144.284 195.88ZM92.1762 188.062C99.6581 186.057 104.098 178.367 102.093 170.885C100.089 163.403 92.3982 158.963 84.9163 160.968C77.4344 162.973 72.9943 170.663 74.9991 178.145C77.0039 185.627 84.6943 190.067 92.1762 188.062Z" fill="url(#paint12_linear)"/>
<defs>
<linearGradient id="paint0_linear" x1="836.325" y1="124.783" x2="812.841" y2="291.1" gradientUnits="userSpaceOnUse">
<stop stop-color="#6A64DC"/>
<stop offset="1" stop-color="#FF006E"/>
</linearGradient>
<linearGradient id="paint1_linear" x1="836.325" y1="124.783" x2="812.841" y2="291.1" gradientUnits="userSpaceOnUse">
<stop stop-color="#6A64DC"/>
<stop offset="1" stop-color="#FF006E"/>
</linearGradient>
<linearGradient id="paint2_linear" x1="836.325" y1="124.783" x2="812.841" y2="291.1" gradientUnits="userSpaceOnUse">
<stop stop-color="#6A64DC"/>
<stop offset="1" stop-color="#FF006E"/>
</linearGradient>
<linearGradient id="paint3_linear" x1="836.325" y1="124.783" x2="812.841" y2="291.1" gradientUnits="userSpaceOnUse">
<stop stop-color="#6A64DC"/>
<stop offset="1" stop-color="#FF006E"/>
</linearGradient>
<linearGradient id="paint4_linear" x1="836.325" y1="124.783" x2="812.841" y2="291.1" gradientUnits="userSpaceOnUse">
<stop stop-color="#6A64DC"/>
<stop offset="1" stop-color="#FF006E"/>
</linearGradient>
<linearGradient id="paint5_linear" x1="836.325" y1="124.783" x2="812.841" y2="291.1" gradientUnits="userSpaceOnUse">
<stop stop-color="#6A64DC"/>
<stop offset="1" stop-color="#FF006E"/>
</linearGradient>
<linearGradient id="paint6_linear" x1="836.325" y1="124.783" x2="812.841" y2="291.1" gradientUnits="userSpaceOnUse">
<stop stop-color="#6A64DC"/>
<stop offset="1" stop-color="#FF006E"/>
</linearGradient>
<linearGradient id="paint7_linear" x1="836.325" y1="124.783" x2="812.841" y2="291.1" gradientUnits="userSpaceOnUse">
<stop stop-color="#6A64DC"/>
<stop offset="1" stop-color="#FF006E"/>
</linearGradient>
<linearGradient id="paint8_linear" x1="220.569" y1="39.348" x2="72.1379" y2="135.186" gradientUnits="userSpaceOnUse">
<stop stop-color="#6A64DC"/>
<stop offset="1" stop-color="#FF006E"/>
</linearGradient>
<linearGradient id="paint9_linear" x1="136.303" y1="36.2854" x2="107.419" y2="54.9349" gradientUnits="userSpaceOnUse">
<stop stop-color="#6A64DC"/>
<stop offset="1" stop-color="#FF006E"/>
</linearGradient>
<linearGradient id="paint10_linear" x1="185.338" y1="121.217" x2="156.454" y2="139.866" gradientUnits="userSpaceOnUse">
<stop stop-color="#6A64DC"/>
<stop offset="1" stop-color="#FF006E"/>
</linearGradient>
<linearGradient id="paint11_linear" x1="161.297" y1="78.4755" x2="132.413" y2="97.125" gradientUnits="userSpaceOnUse">
<stop stop-color="#6A64DC"/>
<stop offset="1" stop-color="#FF006E"/>
</linearGradient>
<linearGradient id="paint12_linear" x1="128.056" y1="95.5308" x2="47.4294" y2="252.745" gradientUnits="userSpaceOnUse">
<stop stop-color="#6A64DC"/>
<stop offset="1" stop-color="#FF006E"/>
</linearGradient>
</defs>
</svg>
