<svg width="235" height="264" viewBox="0 0 235 264" fill="none" xmlns="http://www.w3.org/2000/svg">
<path fill-rule="evenodd" clip-rule="evenodd" d="M197.32 32.1436L130.336 14.1956C112.879 9.51779 94.9343 19.878 90.2565 37.3357L72.3084 104.319C67.6307 121.777 77.9908 139.721 95.4486 144.399L162.432 162.347C179.889 167.025 197.834 156.664 202.512 139.207L220.46 72.2235C225.137 54.7658 214.777 36.8214 197.32 32.1436ZM131.546 9.67986C111.595 4.33382 91.0868 16.174 85.7408 36.1257L67.7927 103.109C62.4467 123.061 74.2869 143.568 94.2386 148.914L161.222 166.862C181.173 172.209 201.681 160.368 207.027 140.417L224.975 73.4335C230.321 53.4818 218.481 32.974 198.529 27.6279L131.546 9.67986Z" fill="url(#paint0_linear)"/>
<path d="M135.414 49.4355C133.409 56.9174 125.718 61.3574 118.236 59.3527C110.755 57.3479 106.315 49.6575 108.319 42.1756C110.324 34.6937 118.014 30.2536 125.496 32.2584C132.978 34.2631 137.418 41.9536 135.414 49.4355Z" fill="url(#paint1_linear)"/>
<path d="M184.449 134.367C182.444 141.849 174.754 146.289 167.272 144.284C159.79 142.279 155.35 134.589 157.354 127.107C159.359 119.625 167.05 115.185 174.532 117.19C182.013 119.194 186.453 126.885 184.449 134.367Z" fill="url(#paint2_linear)"/>
<path d="M160.408 91.6256C158.404 99.1075 150.713 103.548 143.231 101.543C135.749 99.538 131.309 91.8476 133.314 84.3657C135.319 76.8838 143.009 72.4438 150.491 74.4485C157.973 76.4533 162.413 84.1437 160.408 91.6256Z" fill="url(#paint3_linear)"/>
<path fill-rule="evenodd" clip-rule="evenodd" d="M36.1257 114.349C16.174 119.695 4.33382 140.203 9.67986 160.155L27.6279 227.138C32.974 247.089 53.4818 258.93 73.4335 253.584L140.417 235.635C160.368 230.289 172.209 209.782 166.862 189.83L148.914 122.847C143.568 102.895 123.061 91.0549 103.109 96.4009L36.1257 114.349ZM49.4362 164.022C56.9181 162.017 61.3582 154.327 59.3534 146.845C57.3486 139.363 49.6582 134.923 42.1763 136.928C34.6944 138.932 30.2543 146.623 32.2591 154.105C34.2639 161.587 41.9543 166.027 49.4362 164.022ZM77.3007 213.828C79.3054 221.31 74.8653 229 67.3835 231.005C59.9016 233.01 52.2111 228.57 50.2064 221.088C48.2016 213.606 52.6417 205.915 60.1236 203.911C67.6054 201.906 75.2959 206.346 77.3007 213.828ZM116.419 146.074C123.9 144.069 128.341 136.379 126.336 128.897C124.331 121.415 116.641 116.975 109.159 118.979C101.677 120.984 97.2368 128.675 99.2415 136.157C101.246 143.638 108.937 148.079 116.419 146.074ZM144.284 195.88C146.289 203.362 141.849 211.052 134.367 213.057C126.885 215.062 119.195 210.622 117.19 203.14C115.185 195.658 119.625 187.967 127.107 185.963C134.589 183.958 142.28 188.398 144.284 195.88ZM92.1762 188.062C99.6581 186.057 104.098 178.367 102.093 170.885C100.089 163.403 92.3982 158.963 84.9163 160.968C77.4344 162.973 72.9943 170.663 74.9991 178.145C77.0039 185.627 84.6943 190.067 92.1762 188.062Z" fill="url(#paint4_linear)"/>
<defs>
<linearGradient id="paint0_linear" x1="220.569" y1="39.348" x2="72.1379" y2="135.186" gradientUnits="userSpaceOnUse">
<stop stop-color="#6A64DC"/>
<stop offset="1" stop-color="#FF006E"/>
</linearGradient>
<linearGradient id="paint1_linear" x1="136.303" y1="36.2853" x2="107.419" y2="54.9349" gradientUnits="userSpaceOnUse">
<stop stop-color="#6A64DC"/>
<stop offset="1" stop-color="#FF006E"/>
</linearGradient>
<linearGradient id="paint2_linear" x1="185.338" y1="121.217" x2="156.454" y2="139.866" gradientUnits="userSpaceOnUse">
<stop stop-color="#6A64DC"/>
<stop offset="1" stop-color="#FF006E"/>
</linearGradient>
<linearGradient id="paint3_linear" x1="161.297" y1="78.4755" x2="132.413" y2="97.125" gradientUnits="userSpaceOnUse">
<stop stop-color="#6A64DC"/>
<stop offset="1" stop-color="#FF006E"/>
</linearGradient>
<linearGradient id="paint4_linear" x1="128.056" y1="95.5308" x2="47.4294" y2="252.745" gradientUnits="userSpaceOnUse">
<stop stop-color="#6A64DC"/>
<stop offset="1" stop-color="#FF006E"/>
</linearGradient>
</defs>
</svg>
